<?xml version="1.0" encoding="UTF-8" standalone="no"?>
<!-- Created with Inkscape (http://www.inkscape.org/) -->

<svg
   width="64"
   height="64"
   viewBox="0 0 64 64.000003"
   version="1.1"
   id="svg1"
   inkscape:version="1.3.2 (091e20e, 2023-11-25, custom)"
   sodipodi:docname="games.svg"
   xmlns:inkscape="http://www.inkscape.org/namespaces/inkscape"
   xmlns:sodipodi="http://sodipodi.sourceforge.net/DTD/sodipodi-0.dtd"
   xmlns="http://www.w3.org/2000/svg"
   xmlns:svg="http://www.w3.org/2000/svg">
  <sodipodi:namedview
     id="namedview1"
     pagecolor="#ffffff"
     bordercolor="#666666"
     borderopacity="1.0"
     inkscape:showpageshadow="2"
     inkscape:pageopacity="0.0"
     inkscape:pagecheckerboard="0"
     inkscape:deskcolor="#d1d1d1"
     inkscape:document-units="mm"
     showgrid="false"
     inkscape:zoom="11.313708"
     inkscape:cx="43.354485"
     inkscape:cy="28.284272"
     inkscape:window-width="1920"
     inkscape:window-height="1057"
     inkscape:window-x="-8"
     inkscape:window-y="-8"
     inkscape:window-maximized="1"
     inkscape:current-layer="layer1">
    <inkscape:grid
       id="grid1"
       units="px"
       originx="0"
       originy="0"
       spacingx="1"
       spacingy="1"
       empcolor="#0099e5"
       empopacity="0.30196078"
       color="#0099e5"
       opacity="0.14901961"
       empspacing="5"
       dotted="true"
       gridanglex="30"
       gridanglez="30"
       visible="false" />
  </sodipodi:namedview>
  <defs
     id="defs1" />
  <g
     inkscape:label="Layer 1"
     inkscape:groupmode="layer"
     id="layer1">
    <path
       id="rect3-0"
       style="fill:#ffffff;fill-opacity:1;stroke-width:3;stroke-linecap:square;stroke-linejoin:round;paint-order:stroke fill markers"
       d="M 44.000001 24.000001 L 44.000001 28.000001 L 48.000001 28.000001 L 48.000001 24.000001 L 44.000001 24.000001 z M 48.000001 28.000001 L 48.000001 32.000001 L 52.000001 32.000001 L 52.000001 28.000001 L 48.000001 28.000001 z M 48.000001 32.000001 L 44.000001 32.000001 L 44.000001 36.000001 L 48.000001 36.000001 L 48.000001 32.000001 z M 44.000001 32.000001 L 44.000001 28.000001 L 40.000001 28.000001 L 40.000001 32.000001 L 44.000001 32.000001 z " />
    <path
       id="rect2"
       style="fill:#ffffff;fill-opacity:1;stroke-linecap:square;stroke-linejoin:round;paint-order:stroke fill markers"
       d="m 16,24 v 4 h -4 v 4 h 4 v 4 h 4 v -4 h 4 v -4 h -4 v -4 z" />
    <path
       id="rect1-2-4"
       style="fill:#ffffff;fill-opacity:1;stroke-width:1.20087;stroke-linecap:square;stroke-linejoin:round;paint-order:stroke fill markers"
       d="M 12.6875,8.0000002 0,20.687501 v 35.3125 h 19.3125 l 8.000001,-8 h 9.375 l 8,8 h 19.3125 v -35.3125 L 51.312501,8.0000002 h -10.625 l -4,3.9999998 h -9.375 l -4,-3.9999998 z M 16,16.000001 h 4 l 4.000001,4 h 16 l 4,-4 h 4 l 8,8 v 24 h -8 l -8,-8 h -16 l -8.000001,8 H 8.0000002 v -24 z" />
  </g>
</svg>
